<svg xmlns="http://www.w3.org/2000/svg" xmlns:xlink="http://www.w3.org/1999/xlink" width="55" height="62" viewBox="0 0 55 62"><defs><path id="wbrxa" d="M1018 3368.5a27.5 27.5 0 1 1 55 0 27.5 27.5 0 0 1-55 0z"/><path id="wbrxb" d="M1042 3359v-7h6v7z"/><path id="wbrxc" d="M1056 3362h-22"/><path id="wbrxd" d="M1040 3357v12.6c1 .8 3 1.3 5 1.3s4-.5 5-1.3V3357z"/><path id="wbrxe" d="M1054 3367v-16h16v16z"/><path id="wbrxf" d="M1020 3367v-16h16v16z"/><path id="wbrxg" d="M1058 3396.2c-7.2 7.2-18.1 7.2-25.3 0"/><path id="wbrxh" d="M1053.3 3391.5c-4.5 4.5-11.3 4.5-15.8 0"/><path id="wbrxi" d="M1058 3357v4"/><path id="wbrxj" d="M1062 3357v4"/><path id="wbrxk" d="M1066 3357v4"/><path id="wbrxl" d="M1024 3357v4"/><path id="wbrxm" d="M1028 3357v4"/><path id="wbrxn" d="M1032 3357v4"/><path id="wbrxo" d="M1042 3383a3 3 0 1 1 6 0 3 3 0 0 1-6 0z"/><path id="wbrxp" d="M1032 3382c0-6.6 5.8-12 13-12s13 5.4 13 12z"/><path id="wbrxq" d="M1037 3379.1c1-2.4 3.2-4.3 6-4.9"/></defs><g><g transform="translate(-1018 -3341)"><g><use fill="#e9eaeb" xlink:href="#wbrxa"/></g><g><use fill="#fff" xlink:href="#wbrxb"/><use fill="#fff" fill-opacity="0" stroke="#dd0741" stroke-miterlimit="50" stroke-width="2" xlink:href="#wbrxb"/></g><g><use fill="#fff" fill-opacity="0" stroke="#dd0741" stroke-miterlimit="50" stroke-width="2" xlink:href="#wbrxc"/></g><g><use fill="#e9eaeb" xlink:href="#wbrxd"/><use fill="#fff" fill-opacity="0" stroke="#dd0741" stroke-miterlimit="50" stroke-width="2" xlink:href="#wbrxd"/></g><g><use fill="#fff" xlink:href="#wbrxe"/><use fill="#fff" fill-opacity="0" stroke="#dd0741" stroke-miterlimit="50" stroke-width="2" xlink:href="#wbrxe"/></g><g><use fill="#fff" xlink:href="#wbrxf"/><use fill="#fff" fill-opacity="0" stroke="#dd0741" stroke-miterlimit="50" stroke-width="2" xlink:href="#wbrxf"/></g><g><use fill="#fff" fill-opacity="0" stroke="#bcc0c4" stroke-miterlimit="50" stroke-width="2" xlink:href="#wbrxg"/></g><g><use fill="#fff" fill-opacity="0" stroke="#bcc0c4" stroke-miterlimit="50" stroke-width="2" xlink:href="#wbrxh"/></g><g><use fill="#fff" fill-opacity="0" stroke="#dd0741" stroke-miterlimit="50" stroke-width="2" xlink:href="#wbrxi"/></g><g><use fill="#fff" fill-opacity="0" stroke="#dd0741" stroke-miterlimit="50" stroke-width="2" xlink:href="#wbrxj"/></g><g><use fill="#fff" fill-opacity="0" stroke="#dd0741" stroke-miterlimit="50" stroke-width="2" xlink:href="#wbrxk"/></g><g><use fill="#fff" fill-opacity="0" stroke="#dd0741" stroke-miterlimit="50" stroke-width="2" xlink:href="#wbrxl"/></g><g><use fill="#fff" fill-opacity="0" stroke="#dd0741" stroke-miterlimit="50" stroke-width="2" xlink:href="#wbrxm"/></g><g><use fill="#fff" fill-opacity="0" stroke="#dd0741" stroke-miterlimit="50" stroke-width="2" xlink:href="#wbrxn"/></g><g><use fill="#fff" xlink:href="#wbrxo"/><use fill="#fff" fill-opacity="0" stroke="#dd0741" stroke-miterlimit="50" stroke-width="2" xlink:href="#wbrxo"/></g><g><use fill="#f5a8bd" xlink:href="#wbrxp"/><use fill="#fff" fill-opacity="0" stroke="#dd0741" stroke-miterlimit="50" stroke-width="2" xlink:href="#wbrxp"/></g><g><use fill="#fff" fill-opacity="0" stroke="#dd0741" stroke-miterlimit="50" stroke-width="2" xlink:href="#wbrxq"/></g></g></g></svg>