<svg xmlns="http://www.w3.org/2000/svg" xmlns:xlink="http://www.w3.org/1999/xlink" width="64" height="59" viewBox="0 0 64 59"><defs><path id="sl7oa" d="M1030 3622a26 26 0 1 1 52 0 26 26 0 0 1-52 0z"/><path id="sl7ob" d="M1046 3606h12l16.6 16.6c.8.8.8 2 0 2.8l-27.2 27.2c-.8.8-2 .8-2.8 0l-21.2-21.2c-.8-.8-.8-2 0-2.8z"/><path id="sl7oc" d="M1044 3645h-17"/><path id="sl7od" d="M1038 3620h-20"/><path id="sl7oe" d="M1046 3607l6 6 6-6z"/><path id="sl7of" d="M1029 3623l-5.6 5.6c-.8.8-.8 2 0 2.8l13.6 13.6"/><path id="sl7og" d="M1040 3648l4.6 4.6c.8.8 2 .8 2.8 0l27.2-27.2c.8-.8.8-2 0-2.8L1058 3606h-12l-14 14"/><path id="sl7oh" d="M1048 3609l4 4 4-4"/><path id="sl7oi" d="M1046 3619l11 11"/><path id="sl7oj" d="M1043 3622l11 11"/><path id="sl7ok" d="M1040 3625l8 8"/><path id="sl7ol" d="M1030 3600h20"/><path id="sl7om" d="M1062 3646h12"/><path id="sl7on" d="M1036 3608h-10"/><path id="sl7oo" d="M1024 3608h-2"/></defs><g><g transform="translate(-1018 -3596)"><g><use fill="#e9eaeb" xlink:href="#sl7oa"/></g><g><use fill="#fff" xlink:href="#sl7ob"/></g><g><use fill="#fff" fill-opacity="0" stroke="#dd0741" stroke-miterlimit="50" stroke-width="2" xlink:href="#sl7oc"/></g><g><use fill="#fff" fill-opacity="0" stroke="#dd0741" stroke-miterlimit="50" stroke-width="2" xlink:href="#sl7od"/></g><g><g><use fill="#f5a8bd" xlink:href="#sl7oe"/></g><g><use fill="#fff" fill-opacity="0" stroke="#dd0741" stroke-miterlimit="50" stroke-width="2" xlink:href="#sl7of"/></g><g><use fill="#fff" fill-opacity="0" stroke="#dd0741" stroke-miterlimit="50" stroke-width="2" xlink:href="#sl7og"/></g><g><use fill="#fff" fill-opacity="0" stroke="#dd0741" stroke-miterlimit="50" stroke-width="2" xlink:href="#sl7oh"/></g></g><g><g><use fill="#fff" fill-opacity="0" stroke="#bcc0c4" stroke-miterlimit="50" stroke-width="2" xlink:href="#sl7oi"/></g><g><use fill="#fff" fill-opacity="0" stroke="#bcc0c4" stroke-miterlimit="50" stroke-width="2" xlink:href="#sl7oj"/></g><g><use fill="#fff" fill-opacity="0" stroke="#bcc0c4" stroke-miterlimit="50" stroke-width="2" xlink:href="#sl7ok"/></g></g><g><use fill="#fff" fill-opacity="0" stroke="#bcc0c4" stroke-miterlimit="50" stroke-width="2" xlink:href="#sl7ol"/></g><g><use fill="#fff" fill-opacity="0" stroke="#bcc0c4" stroke-miterlimit="50" stroke-width="2" xlink:href="#sl7om"/></g><g><use fill="#fff" fill-opacity="0" stroke="#dd0741" stroke-miterlimit="50" stroke-width="2" xlink:href="#sl7on"/></g><g><use fill="#fff" fill-opacity="0" stroke="#dd0741" stroke-miterlimit="50" stroke-width="2" xlink:href="#sl7oo"/></g></g></g></svg>