<svg xmlns="http://www.w3.org/2000/svg" xmlns:xlink="http://www.w3.org/1999/xlink" width="60" height="63" viewBox="0 0 60 63"><defs><path id="nd0ca" d="M1018 3486.5a21.5 21.5 0 1 1 43 0 21.5 21.5 0 0 1-43 0z"/><path id="nd0cb" d="M1063 3477v-2c0-2.2-1.8-4-4-4h-20c-2.2 0-4 1.8-4 4v2z"/><path id="nd0cc" d="M1035 3512v4c0 1.9 2.1 4 4 4h20c1.9 0 4-2.1 4-4v-4z"/><path id="nd0cd" d="M1035 3512v-35h28v35z"/><path id="nd0ce" d="M1035 3491v-14h28v35h-28v-15"/><path id="nd0cf" d="M1047 3516h5"/><path id="nd0cg" d="M1066 3477h3c2.2 0 4 1.8 4 4v24"/><path id="nd0ch" d="M1077 3501l-4 4-4-4"/><path id="nd0ci" d="M1032 3477h-2c-2.2 0-4 1.8-4 4v8"/><path id="nd0cj" d="M1022 3485l4 4 4-4"/><path id="nd0ck" d="M1073 3508v2"/><path id="nd0cl" d="M1073 3512v2"/><path id="nd0cm" d="M1045 3527h-10c-5 0-9-4-9-9v-7"/><path id="nd0cn" d="M1073 3516v2c0 5-4 9-9 9h-9"/><path id="nd0co" d="M1046 3490l4 4-4 4"/><path id="nd0cp" d="M1050 3494h-20c-2.2 0-4 1.8-4 4v3"/><path id="nd0cq" d="M1026 3503v2"/><path id="nd0cr" d="M1026 3507v2"/><path id="nd0cs" d="M1047 3527h2"/><path id="nd0ct" d="M1051 3527h2"/></defs><g><g transform="translate(-1018 -3465)"><g><use fill="#e9eaeb" xlink:href="#nd0ca"/></g><g><use fill="#f5a8bd" xlink:href="#nd0cb"/><use fill="#fff" fill-opacity="0" stroke="#dd0741" stroke-miterlimit="50" stroke-width="2" xlink:href="#nd0cb"/></g><g><use fill="#f5a8bd" xlink:href="#nd0cc"/><use fill="#fff" fill-opacity="0" stroke="#dd0741" stroke-miterlimit="50" stroke-width="2" xlink:href="#nd0cc"/></g><g><use fill="#fff" xlink:href="#nd0cd"/></g><g><use fill="#fff" fill-opacity="0" stroke="#dd0741" stroke-miterlimit="50" stroke-width="2" xlink:href="#nd0ce"/></g><g><use fill="#fff" fill-opacity="0" stroke="#dd0741" stroke-miterlimit="50" stroke-width="2" xlink:href="#nd0cf"/></g><g><use fill="#fff" fill-opacity="0" stroke="#dd0741" stroke-miterlimit="50" stroke-width="2" xlink:href="#nd0cg"/></g><g><use fill="#fff" fill-opacity="0" stroke="#dd0741" stroke-miterlimit="50" stroke-width="2" xlink:href="#nd0ch"/></g><g><use fill="#fff" fill-opacity="0" stroke="#dd0741" stroke-miterlimit="50" stroke-width="2" xlink:href="#nd0ci"/></g><g><use fill="#fff" fill-opacity="0" stroke="#dd0741" stroke-miterlimit="50" stroke-width="2" xlink:href="#nd0cj"/></g><g><use fill="#fff" fill-opacity="0" stroke="#dd0741" stroke-miterlimit="50" stroke-width="2" xlink:href="#nd0ck"/></g><g><use fill="#fff" fill-opacity="0" stroke="#dd0741" stroke-miterlimit="50" stroke-width="2" xlink:href="#nd0cl"/></g><g><use fill="#fff" fill-opacity="0" stroke="#dd0741" stroke-miterlimit="50" stroke-width="2" xlink:href="#nd0cm"/></g><g><use fill="#fff" fill-opacity="0" stroke="#dd0741" stroke-miterlimit="50" stroke-width="2" xlink:href="#nd0cn"/></g><g><use fill="#fff" fill-opacity="0" stroke="#dd0741" stroke-miterlimit="50" stroke-width="2" xlink:href="#nd0co"/></g><g><use fill="#fff" fill-opacity="0" stroke="#dd0741" stroke-miterlimit="50" stroke-width="2" xlink:href="#nd0cp"/></g><g><use fill="#fff" fill-opacity="0" stroke="#dd0741" stroke-miterlimit="50" stroke-width="2" xlink:href="#nd0cq"/></g><g><use fill="#fff" fill-opacity="0" stroke="#dd0741" stroke-miterlimit="50" stroke-width="2" xlink:href="#nd0cr"/></g><g><use fill="#fff" fill-opacity="0" stroke="#dd0741" stroke-miterlimit="50" stroke-width="2" xlink:href="#nd0cs"/></g><g><use fill="#fff" fill-opacity="0" stroke="#dd0741" stroke-miterlimit="50" stroke-width="2" xlink:href="#nd0ct"/></g></g></g></svg>